<svg width="900" height="680" viewBox="0 0 900 680" fill="none" xmlns="http://www.w3.org/2000/svg" role="img" aria-label="Ilustración de un campus de fútbol con campo, balones y jugadores">
  <rect width="900" height="680" rx="42" fill="#D9EEF8"/>
  <circle cx="738" cy="118" r="58" fill="#FFD05D"/>
  <path d="M0 463C120 414 248 396 384 414C509 431 620 485 900 414V680H0V463Z" fill="#1C8C58"/>
  <path d="M0 541C132 497 267 485 405 510C556 537 699 557 900 496V680H0V541Z" fill="#0F6F49"/>
  <path d="M94 596C220 548 382 537 544 565C638 582 740 584 843 557" stroke="#F7F4EC" stroke-width="8" stroke-linecap="round" opacity=".75"/>
  <path d="M210 445H456" stroke="#F7F4EC" stroke-width="6" stroke-linecap="round" opacity=".72"/>
  <path d="M144 481H304" stroke="#F7F4EC" stroke-width="6" stroke-linecap="round" opacity=".72"/>
  <g transform="translate(518 226)">
    <path d="M92 99C100 74 92 45 70 28C48 12 17 13 -4 31C-25 48 -31 77 -20 101C-8 127 20 142 47 137C69 133 85 119 92 99Z" fill="#F05A3C"/>
    <path d="M28 113L13 216" stroke="#17211D" stroke-width="18" stroke-linecap="round"/>
    <path d="M62 114L92 215" stroke="#17211D" stroke-width="18" stroke-linecap="round"/>
    <path d="M14 218L-38 267" stroke="#17211D" stroke-width="17" stroke-linecap="round"/>
    <path d="M93 216L146 257" stroke="#17211D" stroke-width="17" stroke-linecap="round"/>
    <path d="M22 116L-55 146" stroke="#17211D" stroke-width="16" stroke-linecap="round"/>
    <path d="M70 112L127 70" stroke="#17211D" stroke-width="16" stroke-linecap="round"/>
    <circle cx="47" cy="-2" r="38" fill="#B87550"/>
    <path d="M13 -12C29 -47 76 -43 90 -11C66 -2 38 1 13 -12Z" fill="#17211D"/>
    <path d="M4 69C24 85 58 90 90 73" stroke="#FFFFFF" stroke-width="14" stroke-linecap="round"/>
  </g>
  <g transform="translate(304 292)">
    <path d="M51 98C69 79 74 49 63 25C50 -1 20 -13 -8 -5C-36 3 -55 28 -55 56C-55 85 -34 109 -6 116C16 121 36 115 51 98Z" fill="#FFFFFF"/>
    <path d="M-23 102L-56 199" stroke="#17211D" stroke-width="16" stroke-linecap="round"/>
    <path d="M18 106L31 208" stroke="#17211D" stroke-width="16" stroke-linecap="round"/>
    <path d="M-57 200L-107 235" stroke="#17211D" stroke-width="15" stroke-linecap="round"/>
    <path d="M31 209L87 238" stroke="#17211D" stroke-width="15" stroke-linecap="round"/>
    <path d="M-46 62L-113 48" stroke="#17211D" stroke-width="14" stroke-linecap="round"/>
    <path d="M43 61L103 43" stroke="#17211D" stroke-width="14" stroke-linecap="round"/>
    <circle cx="4" cy="-32" r="34" fill="#E0A176"/>
    <path d="M-26 -44C-10 -76 35 -72 50 -39C25 -30 -1 -31 -26 -44Z" fill="#5C392D"/>
    <path d="M-43 58C-18 72 18 72 47 57" stroke="#F05A3C" stroke-width="13" stroke-linecap="round"/>
  </g>
  <g transform="translate(676 466)">
    <circle cx="0" cy="0" r="42" fill="#F7F4EC"/>
    <path d="M0 -42L14 -13L43 -9L22 13L27 42L0 28L-27 42L-22 13L-43 -9L-14 -13L0 -42Z" fill="#17211D" opacity=".86"/>
    <circle cx="0" cy="0" r="40" stroke="#17211D" stroke-width="5"/>
  </g>
  <g transform="translate(149 397)">
    <rect x="0" y="0" width="36" height="64" rx="6" fill="#FFD05D"/>
    <path d="M18 -8L41 64H-5L18 -8Z" fill="#F05A3C"/>
  </g>
  <g transform="translate(225 415)">
    <rect x="0" y="0" width="30" height="54" rx="5" fill="#FFD05D"/>
    <path d="M15 -7L34 54H-4L15 -7Z" fill="#F05A3C"/>
  </g>
  <path d="M80 174C151 132 226 115 303 123" stroke="#FFFFFF" stroke-width="16" stroke-linecap="round" opacity=".72"/>
  <path d="M124 221C176 195 230 186 286 193" stroke="#FFFFFF" stroke-width="12" stroke-linecap="round" opacity=".58"/>
</svg>
